<svg xmlns="http://www.w3.org/2000/svg" xmlns:xlink="http://www.w3.org/1999/xlink" xmlns:xodm="http://www.corel.com/coreldraw/odm/2003" xml:space="preserve" width="47.6251mm" height="6.0699mm" version="1.1" style="shape-rendering:geometricPrecision; text-rendering:geometricPrecision; image-rendering:optimizeQuality; fill-rule:evenodd; clip-rule:evenodd" viewBox="0 0 4558.89 581.04">
 <defs>
  <style type="text/css">
   <![CDATA[
    .fil0 {fill:none}
    .fil1 {fill:#1759D9;fill-rule:nonzero}
   ]]>
  </style>
 </defs>
    <g id="Слой_x0020_1">
  <metadata id="CorelCorpID_0Corel-Layer"/>
        <g id="_1601456864080">
   <rect class="fil0" x="0.02" y="-0.01" width="4558.86" height="581.04"/>
            <g>
    <g>
     <g>
      <polygon class="fil1" points="1089.72,96.86 1191.37,96.86 1060.14,337.55 1060.14,487.78 970.78,487.78 970.78,337.55 839.54,96.86 941.19,96.86 1015.48,247.65 "/>
         <path class="fil1" d="M1216.5 361.58l0 -264.72 89.36 0 0 256.88c0,36.49 20.49,54.74 61.43,54.74 40.94,0 61.43,-18.25 61.43,-54.74l0 -256.88 89.36 0 0 264.72c0,41.31 -14.15,73.9 -42.44,97.72 -28.67,24.2 -64.78,36.29 -108.34,36.29 -43.55,0 -79.66,-12.09 -108.34,-36.29 -28.32,-23.82 -42.44,-56.39 -42.44,-97.72z"/>
         <path class="fil1" d="M1883.85 487.78l-96.06 0 -73.71 -128.44 -42.44 0 0 128.44 -89.36 0 0 -390.92 156.38 0c37.23,0 68.88,13.03 94.94,39.08 26.06,26.06 39.08,57.7 39.08,94.93 0,23.46 -6.62,45.41 -19.81,65.9 -13.22,20.49 -30.63,36.3 -52.21,47.47l83.19 143.54zm-145.2 -307.13l-67.02 0 0 100.53 67.02 0c12.29,0 22.8,-4.83 31.56,-14.53 8.74,-9.67 13.12,-21.58 13.12,-35.74 0,-14.15 -4.38,-26.06 -13.12,-35.75 -8.76,-9.67 -19.29,-14.5 -31.56,-14.5z"/>
         <polygon class="fil1" points="2116.16,287.3 2232.88,487.78 2131.23,487.78 2065.34,374.96 1999.46,487.78 1897.81,487.78 2014.53,287.3 1903.4,96.86 2005.06,96.86 2065.35,200.18 2125.66,96.86 2227.31,96.86 "/>
         <polygon class="fil1" points="2271.97,487.78 2271.97,96.86 2361.33,96.86 2361.33,487.78 "/>
         <polygon class="fil1" points="2679.67,166.12 2530,401.78 2682.45,401.78 2682.45,487.78 2414.39,487.78 2414.39,418.53 2564.06,182.86 2417.18,182.86 2417.18,96.86 2679.67,96.86 "/>
         <polygon class="fil1" points="3031.49,96.86 3120.85,96.86 3120.85,487.78 3031.49,487.78 3031.49,260.5 2930.42,426.36 2920.37,426.36 2819.28,260.5 2819.28,487.78 2729.92,487.78 2729.92,96.86 2819.28,96.86 2925.38,270.53 "/>
         <path class="fil1" d="M3534.1 487.78l-97.73 0 -19.56 -61.43 -145.2 0 -19.56 61.43 -97.73 0 132.92 -390.92 113.92 0 132.92 390.92zm-189.87 -288.72l-45.8 143.52 91.6 -0.01 -45.79 -143.51z"/>
         <polygon class="fil1" points="3511.76,96.86 3802.16,96.86 3802.16,182.86 3701.63,182.86 3701.63,487.78 3612.26,487.78 3612.26,182.89 3511.73,182.89 3511.73,96.86 "/>
         <path class="fil1" d="M3883.16 442.55c0,14.53 -5.22,27 -15.65,37.41 -10.43,10.43 -22.89,15.65 -37.42,15.65 -14.52,0 -27,-5.22 -37.41,-15.65 -10.43,-10.41 -15.65,-22.88 -15.65,-37.41 0,-14.53 5.22,-26.98 15.65,-37.42 10.42,-10.42 22.89,-15.64 37.41,-15.64 14.53,0 26.98,5.22 37.42,15.64 10.43,10.43 15.65,22.89 15.65,37.42z"/>
         <path class="fil1" d="M3938.99 361.58l0 -264.72 89.36 0 0 256.88c0,36.49 20.46,54.74 61.43,54.74 40.94,0 61.42,-18.25 61.42,-54.74l0 -256.88 89.37 0 0 264.72c0,41.31 -14.15,73.9 -42.44,97.72 -28.68,24.2 -64.78,36.29 -108.34,36.29 -43.56,0 -79.67,-12.09 -108.34,-36.29 -28.3,-23.82 -42.44,-56.39 -42.44,-97.72z"/>
         <polygon class="fil1" points="4556.11,166.12 4406.44,401.78 4558.89,401.78 4558.89,487.78 4290.84,487.78 4290.84,418.53 4440.5,182.86 4293.62,182.86 4293.62,96.86 4556.11,96.86 "/>
     </g>
    </g>
                <g>
     <path class="fil1" d="M313.53 570.42c-61.43,0 -122.85,0.59 -184.27,-0.17 -59.23,-0.76 -102.58,-35.81 -117.11,-90.42 -4.86,-18.29 0.26,-26.53 17.13,-33.34 75.59,-30.51 150.59,-62.57 226.28,-92.86 14.95,-5.98 16.98,-14.98 19.22,-29 9.22,-57.66 -16.6,-102.37 -47.78,-146.99 -31.94,-45.7 -60.95,-93.5 -90.38,-140.94 -12.77,-20.55 -9.63,-25.5 14.02,-25.74 35.47,-0.34 71,1.17 106.39,-0.5 19.75,-0.93 29.13,7.67 37.75,23.72 19.08,35.58 40.49,69.9 59.89,105.29 7.81,14.24 11.96,18.26 21.11,0.71 19.08,-36.6 40.72,-71.87 59.33,-108.71 7.73,-15.32 16.89,-21.05 33.74,-20.87 67.48,0.75 134.95,0.14 202.45,0.32 26.1,0.07 28.75,3.45 16.6,26.75 -33.37,63.94 -67.33,127.6 -102.03,190.84 -7.79,14.22 -11.57,28.08 -11.46,44.13 0.53,60.54 0.22,121.1 0.34,181.67 0.03,18.2 -1.52,35.87 -7,53.63 -15.63,50.72 -30.6,62.63 -82.95,62.58 -57.09,-0.05 -114.18,-0.02 -171.27,-0.02 0,0.02 0,-0.03 0,-0.05zm-95.82 -539.57c-8.64,0 -17.34,-0.45 -25.93,0.11 -9.12,0.62 -21.99,-3.92 -25.93,6 -3.15,7.91 5.81,16.77 10.76,24.55 24.87,39.06 48.06,79.31 75.08,116.82 29.98,41.65 52.13,84.07 43.18,137.65 -3.1,18.6 6.71,20.1 21.67,12.36 14.44,-7.48 29.53,-13.93 44.85,-19.41 15.05,-5.38 26.22,-2.74 24.01,17.2 -3.17,28.6 0.43,57.21 3.52,85.35 4.96,45.16 18.34,88.1 55.23,118.63 39.97,33.05 87.9,25.91 100.29,-14.53 6.29,-20.55 10.45,-41.53 10.15,-63.61 -0.85,-61.4 0,-122.8 -0.43,-184.19 -0.11,-16.9 4.24,-31.58 12.42,-46.46 30.08,-54.95 58.37,-110.89 88.72,-165.69 10.15,-18.28 6.85,-24.72 -13.34,-24.67 -54.49,0.11 -108.96,0.07 -163.45,0.07 -14.34,0 -22.68,6 -29.66,19.8 -21.72,42.87 -45.87,84.5 -68.84,126.75 -9.69,17.83 -18.43,18.07 -28.51,0.11 -23.46,-41.94 -48.32,-83.12 -70.66,-125.63 -8.15,-15.5 -18.34,-21.64 -34.59,-21.19 -9.51,0.22 -19.03,0 -28.54,-0.02zm36.61 518.68c49.96,0 99.96,0.05 149.92,-0.03 14.79,-0.02 19.98,-4.21 8.58,-17.83 -11.03,-13.19 -19.81,-27.77 -26.73,-43.92 -17.98,-42.15 -21.61,-86.85 -25.86,-131.49 -1.26,-13.14 -1.76,-21.72 -19.6,-14.19 -96.6,40.72 -193.58,80.59 -290.64,120.22 -14.5,5.93 -17.74,13.03 -11.08,27.53 22.58,49.11 89.46,75.18 140.72,54.29 46.99,-19.14 94.15,-37.95 141.21,-56.98 7.5,-3.02 15.91,-11.44 21.24,1.67 5.04,12.39 -4.48,15.83 -13.65,20.17 -25.12,11.83 -52.63,18.86 -74.11,40.56z"/>
                    <path class="fil1" d="M201.56 581.04c-24.09,0 -48.37,-0.1 -72.44,-0.4 -62.43,-0.78 -111.11,-38.4 -127,-98.15 -6.1,-22.94 0.86,-36.58 23.27,-45.63 35.11,-14.17 70.66,-28.91 105.06,-43.17 39.66,-16.44 80.67,-33.47 121.25,-49.68 9.7,-3.89 10.72,-7.84 12.84,-21.01 8.84,-55.27 -16.74,-97.48 -46.03,-139.39 -27.78,-39.72 -53.69,-81.59 -78.71,-122.05l-11.98 -19.35c-6.15,-9.91 -12.24,-21.26 -6.93,-30.93 5.28,-9.62 18.1,-10.56 29.7,-10.67 13.12,-0.11 26.39,0 39.25,0.11 21.96,0.22 44.64,0.43 66.76,-0.61 27.13,-1.24 38.85,13.27 47.4,29.2 10.21,19.08 21.36,38.2 32.13,56.66 9.22,15.81 18.74,32.17 27.72,48.53 0.62,1.15 1.19,2.13 1.67,2.98 0.34,-0.61 0.72,-1.28 1.12,-2.05 8.82,-16.9 18.29,-33.74 27.43,-50.01 10.75,-19.08 21.84,-38.83 31.82,-58.56 9.53,-18.84 22.37,-26.6 43.13,-26.58 42.89,0.48 86.54,0.41 128.73,0.34 24.53,-0.02 49.07,-0.07 73.62,-0.02 14.55,0.02 26.12,0.78 31.58,9.78 5.46,9.03 0.6,19.89 -5.78,32.15 -34.54,66.18 -68.9,130.44 -102.13,191.03 -7.15,13.03 -10.29,25.08 -10.17,39.04 0.35,40.48 0.33,81.63 0.31,121.44 0,20.1 -0.03,40.18 0.02,60.28 0.05,22.05 -2.34,40.05 -7.46,56.7 -17.07,55.49 -36.15,69.93 -92.58,69.93 -0.11,0 -0.21,0 -0.34,0 -39.36,-0.02 -78.73,-0.02 -118.11,-0.02l-63.54 0 0 -0.08c-15.22,0.03 -30.44,0.08 -45.66,0.1 -18.46,0.07 -37.15,0.11 -55.95,0.11zm-41.27 -20.89c32.56,0.19 65.26,0.1 97.12,0 18.7,-0.05 37.42,-0.11 56.11,-0.11l53.16 0.07c38.65,0 77.34,-0.02 115.99,0.03 -15.38,-2.83 -31.05,-10.34 -45.15,-22.01 -33.9,-28.03 -52.61,-67.93 -58.95,-125.5l-0.59 -5.41c-2.96,-26.7 -6.03,-54.3 -2.91,-82.21 0.67,-5.95 -0.38,-7.89 -0.5,-8.08 -0.03,0.08 -0.38,-0.07 -1.22,-0.07 -1.38,0 -4.03,0.29 -8.45,1.86 -15.49,5.54 -30.13,11.88 -43.56,18.86 -4.72,2.45 -19.1,9.91 -29.74,2.17 -3.58,-2.59 -5.89,-6.27 -6.96,-10.98 -2.1,12.74 -5.48,26.6 -25.22,34.48 -40.44,16.2 -81.4,33.18 -121.02,49.59 -34.43,14.29 -70.04,29.06 -105.24,43.25 -12.58,5.07 -14.32,8.43 -10.96,21.03 12.58,47.25 47.78,77.26 95.31,82.05 -37.58,-7.36 -72.43,-31.18 -88,-65.08 -2.91,-6.32 -6.34,-15.75 -2.69,-24.96 3.64,-9.24 12.76,-13.86 19.29,-16.5 86.72,-35.41 189.04,-77.37 290.54,-120.17 7.07,-2.98 16.2,-5.84 23.94,-1.19 8.21,4.9 9.09,14.28 9.97,23.36l0.59 6.22c4.08,43.15 7.95,83.92 24.53,122.81 6.6,15.46 14.82,28.99 25.13,41.32 3.28,3.92 12,14.36 7.22,24.62 -4.79,10.24 -18.08,10.26 -23.75,10.26 -36.11,0.08 -72.19,0.05 -108.29,0.05l-66.57 0 17.53 -17.69c17.51,-17.67 38.13,-26.2 58.07,-34.46 6.62,-2.74 12.87,-5.31 19.01,-8.21l1.76 -0.83c2.34,-1.1 6.15,-2.86 7.31,-4 -0.05,-0.32 -0.17,-0.93 -0.56,-1.87 -0.78,0.38 -1.62,0.83 -2.31,1.2 -1.86,0.98 -3.69,1.95 -5.5,2.66 -18.28,7.39 -36.58,14.74 -54.87,22.1 -28.77,11.57 -57.57,23.16 -86.29,34.87 -7.51,3.09 -15.33,5.21 -23.3,6.49zm380.97 -17.88c-4.88,5.43 -10.72,9.84 -17.38,13.05 7.14,-2.76 12.66,-6.9 17.38,-13.05zm-192.18 -192.24c-1.02,0.29 -2.46,0.77 -4.38,1.57 -101.58,42.83 -204,84.84 -290.76,120.28 -6.66,2.71 -7.69,4.57 -7.81,4.9 -0.07,0.22 -0.71,2.22 2.24,8.64 20.46,44.49 81.15,67.85 127.35,49.02 28.75,-11.73 57.56,-23.32 86.38,-34.89 18.29,-7.36 36.59,-14.72 54.85,-22.1 1.17,-0.48 2.34,-1.12 3.52,-1.74 4.69,-2.5 11.79,-6.26 19.51,-3.47 5.12,1.86 9.07,6.1 11.72,12.58 8.5,20.76 -9.48,29.15 -17.17,32.72l-1.67 0.78c-6.62,3.12 -13.38,5.93 -19.93,8.64 -9.31,3.86 -18.39,7.6 -26.94,12.2l9.96 0c36.08,0 72.16,0.03 108.26,-0.05 0.46,0 0.88,0 1.29,-0.02 -0.22,-0.27 -0.43,-0.53 -0.65,-0.78 -11.62,-13.94 -20.89,-29.13 -28.29,-46.49 -17.87,-41.87 -22.05,-86.19 -26.13,-129.01l-0.59 -6.19c-0.19,-2.1 -0.45,-4.67 -0.76,-6.58zm24.15 -53.89c5.62,0 10.41,1.55 14.28,4.62 6.79,5.35 9.53,14.28 8.17,26.55 -2.83,25.63 0.1,52.06 2.9,77.63l0.6 5.46c5.69,51.87 22.05,87.38 51.51,111.75 19.01,15.72 40.83,21.95 58.35,16.69 12.48,-3.74 21.27,-12.84 25.39,-26.28 6.88,-22.46 9.96,-41.65 9.7,-60.41 -0.48,-34.97 -0.4,-70.5 -0.35,-104.87 0.05,-26.03 0.1,-52.96 -0.1,-79.4 -0.12,-17.88 4.21,-34.24 13.67,-51.54 13.98,-25.5 27.79,-51.7 41.15,-77.04 15.39,-29.15 31.32,-59.33 47.58,-88.69 2.46,-4.41 3.5,-7.1 3.93,-8.64 -1.43,-0.32 -3.95,-0.77 -8.17,-0.62 -43.34,0.1 -86.69,0.1 -130.03,0.07l-33.45 0c0,0 -0.02,0 -0.02,0 -8.77,0 -14.34,2.19 -20.36,14.08 -14.77,29.13 -30.84,58.09 -46.4,86.09 -7.57,13.62 -15.14,27.24 -22.58,40.91 -4.4,8.08 -11.57,18.84 -23.19,18.91 -0.05,0 -0.08,0 -0.12,0 -11.57,0 -18.89,-10.64 -23.36,-18.67 -8.37,-14.93 -16.89,-29.77 -25.44,-44.64 -15.19,-26.41 -30.91,-53.72 -45.36,-81.25 -6.24,-11.89 -12.82,-15.91 -25.11,-15.65 -7.14,0.21 -14.34,0.14 -21.29,0.07l-7.55 -0.04c-2.69,0 -5.36,-0.05 -8.05,-0.1 -5.97,-0.1 -11.62,-0.17 -17.17,0.18 -3.12,0.22 -6.16,0 -9.12,-0.23 -2.34,-0.17 -6.02,-0.43 -7.73,-0.1 0.45,1.88 3.86,6.55 5.73,9.14 1.44,1.97 2.86,3.92 4.05,5.81 7.58,11.91 15.01,23.91 22.42,35.92 16.57,26.84 33.72,54.58 52.32,80.4 29.22,40.59 54.87,86.27 44.99,145.44 -0.32,1.9 -0.43,3.31 -0.43,4.31 1.47,-0.37 3.76,-1.19 7.07,-2.9 14.24,-7.41 29.77,-14.12 46.13,-19.98 5.74,-2 10.86,-3.01 15.44,-3.01zm-115.54 -90.43c14.24,24.18 25.51,50.23 28.54,79.64 -1.68,-29.61 -13.46,-55.68 -28.54,-79.64zm311.43 34.92c-1.74,4.79 -2.96,9.54 -3.69,14.38 0.83,-4.88 2.05,-9.64 3.69,-14.38zm-202.37 -59.81l0 0 0 0zm-76.41 -132.96c14.17,26.94 29.66,53.85 44.64,79.9 8.57,14.91 17.14,29.82 25.55,44.85 2.41,4.31 4.19,6.43 5.22,7.43 1.01,-1 2.72,-3.09 5.07,-7.43 7.49,-13.74 15.08,-27.42 22.68,-41.09 15.46,-27.84 31.46,-56.61 46.03,-85.4 7.74,-15.32 17.81,-23.25 32.13,-25.08 -0.98,0 -1.95,-0.03 -2.96,-0.03 -12.76,-0.26 -18.34,3.26 -24.36,15.17 -10.19,20.17 -21.41,40.11 -32.25,59.38 -9.07,16.15 -18.46,32.81 -27.13,49.44 -4.62,8.88 -10.19,17.1 -19.41,17.19 -10.39,0.1 -15.64,-9.79 -20.01,-17.72 -8.85,-16.15 -18.31,-32.36 -27.45,-48.08 -9.22,-15.81 -18.72,-32.11 -27.75,-48.54zm369.02 21.84c-14.45,26.33 -28.62,53.2 -42.4,79.28 -3.88,7.33 -7.78,14.76 -11.74,22.22 17.83,-33.03 35.94,-66.94 54.13,-101.5zm-493.65 -5.7c9.79,15.79 19.75,31.74 29.87,47.63 -1.83,-2.96 -3.65,-5.91 -5.48,-8.84 -7.38,-11.94 -14.74,-23.86 -22.28,-35.68 -0.64,-1.02 -1.35,-2.08 -2.12,-3.12zm486.96 -42.7c6.5,1.1 12.63,3.67 16.1,9.6 4.02,6.79 2.59,14.5 -0.5,21.88 3.46,-6.61 6.93,-13.24 10.41,-19.88 2.88,-5.55 4.36,-8.91 5.07,-10.96 -2.24,-0.31 -6.03,-0.56 -12.5,-0.59 -6.19,-0.05 -12.39,-0.05 -18.58,-0.05zm-512.28 0.72c0.77,1.81 2.22,4.71 5.01,9.22l11.21 18.09c-2,-4.95 -2.74,-10.41 -0.45,-16.17 2.77,-6.93 7.62,-10.29 12.84,-11.83 -6.1,-0.03 -12.24,-0.03 -18.29,0.02 -5.19,0.05 -8.38,0.35 -10.31,0.67zm115.11 -1.1c14.24,1.95 24.91,9.57 32.97,23.48 -0.96,-1.76 -1.93,-3.54 -2.89,-5.31 -7.86,-14.65 -14.38,-18.86 -28.1,-18.26 -0.65,0.05 -1.31,0.08 -1.98,0.1z"/>
    </g>
                <g>
     <path class="fil1" d="M113.06 514.24c-6,0.5 -10.24,-2.79 -12.15,-7.72 -3.22,-8.43 2.62,-13.12 9.19,-16.03 18.84,-8.36 37.87,-16.36 56.93,-24.27 41.27,-17.13 82.62,-34.17 123.99,-51.09 5.57,-2.28 11.4,-3.97 17.26,-5.35 6.82,-1.63 14.66,-3.01 17.56,5.57 2.79,8.19 -2.95,12.41 -10.02,15.41 -29.3,12.38 -58.38,25.26 -87.77,37.41 -34.17,14.15 -68.57,27.72 -102.87,41.52 -3.97,1.54 -8.05,3 -12.12,4.55z"/>
                    <path class="fil1" d="M111.89 519.48c-7.17,0 -13.15,-4.14 -15.81,-11.09 -2.13,-5.53 -3.39,-15.84 11.93,-22.65 20.2,-8.98 40.16,-17.35 57.04,-24.32 41.31,-17.12 82.62,-34.17 124.02,-51.11 5.26,-2.14 11.17,-3.97 18.02,-5.62 5.71,-1.36 19.08,-4.53 23.67,8.93 3.25,9.52 -1.12,16.86 -12.9,21.86 -12.03,5.07 -24.04,10.24 -36.01,15.41 -16.93,7.28 -34.44,14.84 -51.78,22 -24.63,10.19 -49.78,20.25 -74.09,29.99 -9.6,3.83 -19.22,7.69 -28.82,11.54 -2.59,1.05 -5.22,2.03 -7.84,3.01l-5.78 1.95c-0.57,0.08 -1.1,0.1 -1.65,0.1zm204.42 -105.74c-1.6,0 -3.76,0.33 -6.83,1.06 -6.37,1.5 -11.75,3.2 -16.5,5.12 -41.37,16.91 -82.68,33.94 -123.94,51.09 -16.82,6.98 -36.7,15.32 -56.8,24.22 -8.61,3.81 -7.29,7.2 -6.43,9.44 0.78,2.07 2.48,4.42 6.1,4.42 0.02,0 0.07,0 0.1,0l3.67 -1.38c2.55,-0.96 5.07,-1.89 7.6,-2.9 9.59,-3.87 19.21,-7.72 28.84,-11.55 24.29,-9.72 49.41,-19.77 73.98,-29.93 17.27,-7.15 34.72,-14.67 51.63,-21.96 12.02,-5.17 24.03,-10.37 36.08,-15.46 8.88,-3.76 7.91,-6.64 7.12,-8.95 -0.66,-2.01 -1.55,-3.22 -4.59,-3.22z"/>
    </g>
   </g>
  </g>
 </g>
</svg>